<?xml version="1.0" standalone="no"?>
<!DOCTYPE svg PUBLIC "-//W3C//DTD SVG 20010904//EN"
 "http://www.w3.org/TR/2001/REC-SVG-20010904/DTD/svg10.dtd">
<svg version="1.0" xmlns="http://www.w3.org/2000/svg"
 width="512.000000pt" height="512.000000pt" viewBox="0 0 512.000000 512.000000"
 preserveAspectRatio="xMidYMid meet">

<g transform="translate(0.000000,512.000000) scale(0.100000,-0.100000)"
fill="#000000" stroke="none">
<path d="M4171 5106 c-36 -20 -50 -55 -51 -123 l0 -63 -69 0 c-37 0 -82 -5
-99 -11 -66 -23 -84 -109 -33 -160 28 -28 34 -29 115 -29 l86 0 -2 -522 -3
-523 -64 -31 c-176 -87 -324 -73 -678 65 -184 71 -294 104 -390 115 -37 5
-161 -9 -441 -49 -418 -59 -421 -59 -461 -9 -28 36 -27 75 4 108 49 53 406
205 695 296 91 28 175 56 187 60 32 13 57 57 56 98 -1 44 -48 92 -90 92 -69 0
-468 -139 -730 -255 -162 -71 -228 -111 -274 -163 -32 -36 -36 -37 -538 -174
-284 -77 -525 -138 -549 -138 -53 0 -94 20 -110 55 -30 65 -4 113 83 154 36
17 67 31 69 31 3 0 227 97 498 216 568 249 995 429 1140 479 203 71 344 95
555 95 135 0 164 7 189 46 28 43 22 93 -17 128 l-32 29 -191 -6 c-394 -11
-428 -23 -1861 -646 -526 -228 -516 -224 -561 -274 -57 -62 -79 -120 -79 -207
0 -62 5 -85 28 -132 34 -69 91 -121 166 -149 103 -38 166 -28 671 110 245 67
452 124 461 127 11 3 19 -3 22 -18 12 -48 67 -118 119 -152 97 -65 111 -65
553 -3 476 68 453 69 758 -52 369 -147 582 -167 800 -76 14 6 17 2 17 -18 0
-39 21 -77 51 -93 37 -19 853 -21 894 -2 57 26 55 -3 55 888 0 891 2 862 -55
888 -39 18 -861 16 -894 -2z m749 -886 l0 -700 -300 0 -300 0 0 700 0 700 300
0 300 0 0 -700z"/>
<path d="M4571 4706 c-87 -48 -50 -186 49 -186 51 0 100 49 100 99 0 75 -83
124 -149 87z"/>
<path d="M3538 4905 c-85 -47 -51 -185 45 -185 43 0 92 38 100 77 6 31 -12 81
-36 101 -24 20 -79 24 -109 7z"/>
<path d="M1715 3244 c-40 -7 -111 -34 -165 -60 -79 -39 -110 -62 -181 -133
-71 -71 -94 -102 -133 -181 -101 -206 -101 -414 0 -620 39 -79 62 -110 133
-181 72 -72 102 -94 181 -132 288 -140 598 -84 818 148 l71 74 205 3 206 3 98
98 97 97 60 0 59 0 101 -100 102 -100 107 0 c74 0 115 4 134 14 32 17 325 312
341 343 15 31 15 354 -1 388 -26 56 -5 55 -788 55 l-720 0 -71 75 c-174 183
-407 258 -654 209z m247 -195 c226 -47 398 -259 398 -489 0 -270 -230 -500
-500 -500 -270 0 -500 230 -500 500 0 225 164 433 383 486 66 16 152 17 219 3z
m1798 -366 l0 -78 -122 -122 c-160 -161 -155 -160 -290 -25 l-98 97 -141 3
-140 4 -103 -101 -102 -101 -118 0 c-107 0 -117 2 -112 18 14 42 26 129 26
182 0 53 -12 140 -26 183 -5 16 29 17 610 17 l616 0 0 -77z"/>
<path d="M1611 2646 c-87 -48 -50 -186 49 -186 51 0 100 49 100 99 0 75 -83
124 -149 87z"/>
<path d="M51 1786 c-52 -29 -50 -1 -51 -883 0 -617 3 -829 12 -848 25 -54 31
-55 487 -55 304 0 427 3 446 12 38 17 55 58 55 128 l0 60 69 0 c37 0 82 5 99
11 66 23 84 109 33 160 -28 28 -34 29 -115 29 l-86 0 2 523 3 522 64 31 c176
87 325 73 679 -65 224 -87 321 -113 427 -114 48 0 223 21 436 52 383 55 388
55 428 5 28 -36 27 -75 -4 -108 -49 -53 -406 -205 -695 -296 -91 -28 -175 -56
-187 -60 -32 -13 -57 -57 -56 -98 1 -44 48 -92 90 -92 87 0 659 210 868 318
39 20 93 59 120 86 l50 50 505 138 c278 76 524 138 547 138 55 0 91 -17 109
-51 30 -58 8 -114 -58 -147 -24 -12 -169 -76 -323 -143 -154 -66 -435 -188
-625 -271 -412 -179 -720 -305 -850 -346 -146 -46 -258 -64 -456 -71 -196 -7
-206 -9 -230 -66 -17 -41 -7 -81 28 -110 28 -24 36 -25 156 -25 227 0 399 26
582 87 176 58 577 225 1195 498 171 75 386 169 479 208 191 81 239 116 283
205 23 47 28 70 28 132 0 122 -56 213 -168 272 -36 20 -57 23 -147 23 -103 -1
-113 -3 -564 -128 -253 -70 -461 -127 -462 -127 -1 0 -4 10 -8 23 -11 47 -67
117 -118 151 -97 65 -111 65 -553 3 -478 -68 -444 -70 -755 51 -201 78 -264
98 -369 118 -142 27 -309 11 -434 -41 -14 -6 -17 -2 -17 19 0 39 -24 80 -55
94 -39 18 -861 16 -894 -2z m749 -886 l0 -700 -300 0 -300 0 0 700 0 700 300
0 300 0 0 -700z"/>
<path d="M451 586 c-87 -48 -50 -186 49 -186 51 0 100 49 100 99 0 75 -83 124
-149 87z"/>
<path d="M1469 372 c-73 -66 -8 -192 87 -168 75 19 100 112 45 167 -40 39 -89
40 -132 1z"/>
</g>
</svg>
