<?xml version="1.0" standalone="no"?>
<!DOCTYPE svg PUBLIC "-//W3C//DTD SVG 20010904//EN"
 "http://www.w3.org/TR/2001/REC-SVG-20010904/DTD/svg10.dtd">
<svg version="1.0" xmlns="http://www.w3.org/2000/svg"
 width="512.000000pt" height="512.000000pt" viewBox="0 0 512.000000 512.000000"
 preserveAspectRatio="xMidYMid meet">

<g transform="translate(0.000000,512.000000) scale(0.100000,-0.100000)"
fill="#000000" stroke="none">
<path d="M224 4379 c-18 -5 -53 -24 -80 -41 -215 -145 -178 -467 65 -559 68
-25 174 -23 234 6 l39 18 149 -149 149 -149 0 -232 0 -233 -212 0 c-161 -1
-217 -4 -230 -14 -10 -7 -90 -109 -178 -227 -111 -147 -160 -221 -160 -239 0
-32 312 -453 348 -469 14 -7 104 -11 227 -11 l205 0 0 -233 0 -232 -149 -149
-149 -149 -39 18 c-21 10 -69 20 -108 23 -129 8 -245 -60 -302 -176 -24 -48
-28 -70 -28 -137 0 -67 4 -89 28 -137 30 -62 83 -115 149 -150 64 -34 203 -33
272 1 146 72 215 249 156 403 l-20 52 170 171 170 171 0 262 0 262 130 0 130
0 0 -69 c0 -85 25 -124 80 -124 52 0 70 30 70 119 l0 74 100 0 100 0 -2 -162
-3 -161 -45 -15 c-65 -22 -151 -111 -176 -182 -25 -75 -24 -171 4 -232 29 -67
103 -141 165 -169 77 -34 183 -33 257 2 117 56 184 160 185 289 0 62 -5 85
-28 132 -33 68 -112 143 -168 159 l-39 12 0 164 0 163 135 0 135 0 0 -124 c0
-110 2 -126 21 -150 28 -36 80 -36 108 0 19 24 21 40 21 150 l0 124 95 0 95 0
0 -262 0 -262 170 -171 170 -171 -20 -52 c-25 -65 -26 -160 -3 -228 24 -70
120 -165 192 -189 119 -39 257 -3 339 91 137 155 95 387 -89 489 -48 27 -63
30 -139 30 -63 0 -97 -5 -128 -19 l-43 -20 -150 150 -149 149 0 232 0 233 60
0 c51 0 65 4 85 25 32 31 32 69 0 100 l-24 25 -1078 0 -1078 1 -123 164 -122
165 122 165 123 164 155 1 156 0 136 -95 c95 -67 144 -95 164 -95 21 0 61 26
149 95 l119 95 68 0 67 0 145 -95 c93 -61 154 -95 172 -95 17 0 78 33 171 95
l144 95 470 0 c399 0 470 -2 466 -14 -6 -16 -34 -151 -42 -208 l-6 -38 -304 0
-304 0 -20 -26 c-27 -35 -26 -57 3 -91 l24 -28 301 -3 c301 -3 301 -3 305 -25
17 -98 37 -199 42 -212 5 -13 -5 -15 -60 -15 -58 0 -70 -3 -91 -25 -32 -31
-32 -69 0 -100 22 -23 32 -25 120 -25 l96 0 17 -31 c89 -160 252 -331 397
-416 182 -108 348 -153 560 -153 212 0 378 45 560 153 103 60 278 225 339 320
247 381 247 833 0 1214 -61 95 -236 260 -339 320 -186 110 -392 164 -592 154
-52 -2 -81 -72 -48 -115 16 -21 75 -35 148 -36 69 0 189 -27 273 -60 277 -110
486 -348 565 -640 33 -122 33 -338 0 -460 -94 -349 -371 -613 -716 -685 -99
-20 -280 -20 -376 -1 -349 73 -627 338 -721 686 -32 119 -32 346 1 465 26 99
88 229 145 309 89 125 244 250 382 311 32 14 65 33 72 42 16 23 15 64 -3 90
-27 38 -59 37 -149 -5 -197 -93 -370 -251 -481 -441 l-36 -61 -304 0 -305 0 0
233 0 232 149 149 150 150 43 -20 c31 -14 65 -19 128 -19 76 0 91 3 139 30
184 102 226 334 89 489 -22 26 -64 59 -92 74 -44 23 -63 27 -141 27 -73 0 -98
-4 -135 -22 -59 -29 -124 -94 -152 -152 -33 -67 -37 -178 -9 -251 l21 -54
-170 -171 -170 -171 0 -262 0 -262 -95 0 -95 0 0 124 c0 110 -2 126 -21 150
-15 19 -30 26 -54 26 -24 0 -39 -7 -54 -26 -19 -24 -21 -40 -21 -169 l0 -142
-107 -71 -107 -71 -28 20 -28 20 0 233 0 233 39 12 c56 16 135 91 168 159 56
115 30 263 -63 356 -90 90 -237 118 -351 67 -62 -28 -136 -103 -165 -169 -28
-61 -29 -157 -4 -232 25 -71 111 -160 176 -182 l45 -15 3 -182 2 -183 -33 21
c-26 16 -51 21 -101 21 l-66 0 0 74 c0 57 -4 79 -18 97 -27 33 -78 30 -109 -5
-20 -24 -23 -37 -23 -119 l-1 -92 -75 -58 c-41 -32 -80 -60 -87 -63 -7 -2 -32
10 -55 27 l-42 31 0 316 0 316 -170 171 -170 171 20 52 c62 162 -19 353 -175
411 -59 22 -154 27 -211 10z m177 -162 c108 -73 107 -211 -1 -285 -46 -31
-130 -28 -179 8 -38 26 -70 90 -71 138 0 60 51 133 110 155 38 14 108 6 141
-16z m2583 9 c18 -8 46 -31 62 -52 25 -32 29 -47 29 -99 0 -51 -4 -67 -27 -97
-37 -49 -89 -71 -150 -66 -88 9 -148 75 -148 163 0 121 120 199 234 151z
m-1322 -396 c51 -15 105 -77 113 -132 24 -158 -169 -256 -281 -144 -69 69 -66
168 7 238 49 46 92 57 161 38z m1 -2224 c51 -19 76 -42 99 -95 54 -119 -52
-248 -184 -226 -51 9 -112 66 -128 120 -24 80 24 171 105 200 50 17 60 18 108
1z m-1262 -419 c108 -73 107 -211 -1 -285 -46 -31 -130 -28 -178 7 -39 28 -72
89 -72 133 1 66 50 138 110 161 38 14 108 6 141 -16z m2612 -10 c73 -56 88
-160 32 -233 -94 -124 -295 -57 -295 98 0 72 38 131 100 157 43 19 124 8 163
-22z"/>
<path d="M3684 3129 c-55 -16 -127 -72 -159 -123 l-30 -49 -3 -385 -3 -385 26
-53 c42 -87 125 -142 225 -151 85 -8 152 18 216 82 82 81 84 96 84 495 0 399
-2 414 -83 495 -76 75 -176 102 -273 74z m137 -154 c16 -9 39 -30 49 -48 19
-30 20 -52 20 -367 0 -315 -1 -337 -20 -367 -36 -59 -101 -78 -166 -47 -63 30
-64 36 -64 414 0 377 1 383 62 413 42 21 81 21 119 2z"/>
<path d="M4458 2826 c-181 -49 -261 -262 -157 -419 107 -162 351 -162 458 0
105 159 24 372 -161 420 -62 16 -79 16 -140 -1z m142 -164 c14 -10 33 -35 44
-56 16 -32 17 -44 7 -76 -23 -76 -103 -116 -168 -83 -103 51 -104 173 -2 226
39 20 81 16 119 -11z"/>
</g>
</svg>
