<?xml version="1.0" standalone="no"?>
<!DOCTYPE svg PUBLIC "-//W3C//DTD SVG 20010904//EN"
 "http://www.w3.org/TR/2001/REC-SVG-20010904/DTD/svg10.dtd">
<svg version="1.0" xmlns="http://www.w3.org/2000/svg"
 width="512.000000pt" height="512.000000pt" viewBox="0 0 512.000000 512.000000"
 preserveAspectRatio="xMidYMid meet">

<g transform="translate(0.000000,512.000000) scale(0.100000,-0.100000)"
fill="#000000" stroke="none">
<path d="M2915 5109 c-131 -19 -320 -93 -434 -171 -66 -46 -187 -164 -243
-238 -62 -81 -141 -241 -167 -340 -57 -211 -46 -442 31 -643 l30 -77 -56 -113
c-85 -171 -100 -236 -100 -447 0 -200 14 -267 82 -414 l40 -84 -354 -353
c-320 -320 -354 -357 -354 -386 0 -43 30 -73 72 -73 30 0 70 37 420 388 287
286 388 393 388 410 0 13 -18 54 -39 90 -22 37 -55 110 -73 162 -32 93 -33 99
-32 260 0 154 2 171 28 250 35 105 55 145 119 238 118 172 308 294 526 338 90
18 313 16 331 -2 6 -6 -14 -27 -51 -54 -33 -24 -89 -74 -124 -111 -60 -64 -69
-69 -131 -84 -215 -50 -384 -215 -439 -430 -19 -76 -19 -214 0 -290 51 -196
206 -358 397 -416 62 -19 71 -26 125 -92 33 -40 87 -94 121 -122 57 -46 60
-51 39 -57 -41 -11 -184 -8 -259 6 -97 19 -176 48 -265 96 -41 22 -86 40 -101
40 -22 0 -94 -68 -389 -363 -434 -433 -410 -386 -272 -522 50 -50 97 -102 105
-117 23 -43 17 -84 -15 -120 -25 -28 -36 -33 -75 -33 -45 0 -48 2 -150 105
-143 142 -139 142 -292 -11 -150 -150 -150 -147 -27 -272 50 -51 98 -103 107
-117 41 -63 -2 -146 -82 -157 l-42 -6 -103 101 c-107 106 -142 128 -179 113
-13 -5 -77 -64 -143 -130 -128 -129 -156 -145 -215 -121 -40 16 -60 51 -60
102 l0 42 355 356 c309 310 355 359 355 385 0 48 -25 75 -68 75 -36 0 -53 -15
-403 -367 -309 -311 -367 -374 -377 -409 -54 -188 80 -360 264 -341 75 8 108
28 216 135 l97 96 73 -70 c96 -91 133 -109 223 -109 109 1 184 50 231 150 51
108 26 202 -84 317 l-75 79 38 39 c22 22 44 40 50 40 6 0 40 -30 75 -66 87
-88 126 -108 215 -108 53 0 80 5 111 21 98 52 151 146 141 253 -7 77 -26 112
-110 198 l-72 72 296 296 296 296 52 -26 c204 -104 460 -132 689 -76 74 19 97
21 117 12 l25 -12 0 -424 0 -425 26 -20 c35 -27 57 -26 91 3 l28 24 3 454 c1
351 -1 459 -11 478 -9 18 -35 34 -88 55 -280 111 -460 311 -536 596 -24 91
-24 300 1 394 77 296 296 523 591 611 74 22 112 27 210 28 117 1 249 -17 261
-35 11 -18 -69 -217 -93 -232 -5 -3 -33 1 -63 9 -73 19 -106 18 -183 -6 -79
-25 -155 -89 -195 -164 -24 -46 -27 -62 -27 -151 0 -92 2 -104 29 -153 107
-193 367 -236 521 -86 70 67 100 140 100 239 0 70 -4 89 -31 144 l-32 63 44
85 c23 47 51 108 60 136 9 29 18 54 20 55 8 10 129 -81 205 -154 55 -52 95
-84 109 -84 12 0 35 14 52 30 37 37 33 63 -19 127 -47 58 -179 163 -254 203
l-59 31 0 123 c0 67 -5 149 -11 182 -58 325 -258 598 -549 748 -192 98 -412
135 -625 105z m370 -167 c162 -44 295 -120 406 -231 170 -171 259 -383 259
-619 0 -76 -2 -83 -17 -77 -10 3 -63 13 -118 22 -124 19 -257 12 -381 -19
l-89 -23 -60 22 c-170 61 -412 69 -588 19 -153 -43 -290 -118 -404 -220 l-52
-47 -20 67 c-152 490 175 1022 687 1119 101 19 283 13 377 -13z m429 -1451
c12 -19 -195 -184 -210 -168 -14 13 8 76 39 111 43 49 153 86 171 57z m-977
-111 c-18 -52 -33 -97 -34 -98 -3 -6 -103 50 -103 57 0 20 156 148 167 138 1
-2 -12 -45 -30 -97z m1117 -12 c35 -134 -86 -260 -218 -227 -75 19 -75 31 1
79 37 24 96 72 132 107 36 34 69 62 72 63 4 0 9 -10 13 -22z m-1171 -353 c3
-67 16 -149 31 -209 14 -55 24 -101 22 -103 -7 -7 -85 58 -119 99 -60 73 -90
151 -95 245 -3 45 -2 97 2 116 l6 34 74 -36 73 -36 6 -110z"/>
<path d="M4480 3430 c-25 -25 -25 -58 1 -140 31 -94 37 -288 14 -401 -55 -274
-244 -503 -501 -608 -119 -49 -114 -35 -114 -295 l0 -221 -115 -89 c-160 -123
-162 -139 -24 -247 49 -39 89 -72 89 -74 0 -2 -39 -33 -86 -70 -136 -107 -137
-130 -4 -231 49 -38 90 -71 90 -74 -1 -3 -41 -36 -91 -74 -136 -104 -134 -121
27 -248 l114 -90 0 -92 0 -91 -99 -99 c-54 -54 -103 -97 -108 -95 -4 2 -48 46
-96 97 l-87 92 0 309 c0 317 -5 362 -40 381 -30 16 -68 12 -90 -10 -19 -19
-20 -33 -20 -379 l0 -359 146 -156 c140 -151 171 -175 211 -162 10 3 90 77
176 164 l157 158 0 157 0 157 -71 57 c-40 32 -83 67 -96 78 l-24 20 91 69
c133 101 134 130 7 227 -46 35 -85 68 -88 72 -2 5 37 41 86 81 81 64 90 75 93
108 3 35 -1 40 -69 95 -39 32 -83 67 -96 78 l-24 20 89 68 c50 38 93 75 96 84
3 8 6 109 6 224 l0 209 55 24 c136 61 300 196 391 322 61 85 118 203 149 309
33 110 45 311 25 431 -16 103 -47 195 -72 217 -27 23 -73 22 -98 -3z"/>
</g>
</svg>
