<?xml version="1.0" standalone="no"?>
<!DOCTYPE svg PUBLIC "-//W3C//DTD SVG 20010904//EN"
 "http://www.w3.org/TR/2001/REC-SVG-20010904/DTD/svg10.dtd">
<svg version="1.0" xmlns="http://www.w3.org/2000/svg"
 width="512.000000pt" height="512.000000pt" viewBox="0 0 512.000000 512.000000"
 preserveAspectRatio="xMidYMid meet">

<g transform="translate(0.000000,512.000000) scale(0.100000,-0.100000)"
fill="#000000" stroke="none">
<path d="M361 4504 c-169 -45 -301 -180 -346 -351 -12 -44 -15 -122 -15 -340
0 -304 3 -327 51 -369 13 -11 571 -367 1239 -790 l1215 -769 55 0 55 0 765
485 c421 266 911 577 1090 690 l325 206 3 -1096 c1 -602 0 -1110 -3 -1128 -8
-44 -59 -99 -103 -112 -26 -8 -689 -10 -2154 -8 l-2117 3 -27 21 c-15 11 -37
33 -48 48 -21 27 -21 38 -26 966 -5 928 -5 939 -26 966 -39 53 -71 69 -134 69
-63 0 -95 -16 -134 -69 -21 -27 -21 -36 -24 -959 -2 -644 1 -948 9 -985 26
-129 131 -267 247 -326 118 -60 -28 -56 2302 -56 2352 0 2188 -4 2311 61 70
38 157 126 193 197 59 116 56 29 56 1702 0 1347 -2 1543 -15 1595 -45 172
-179 305 -352 350 -85 22 -4309 21 -4392 -1z m4365 -330 c68 -50 69 -53 71
-302 l3 -227 -1120 -708 -1120 -707 -452 286 c-249 158 -586 371 -748 474
-162 103 -383 242 -490 310 -107 68 -269 170 -359 228 -90 57 -170 106 -177
109 -11 4 -14 48 -14 218 0 221 4 252 43 294 49 53 -80 50 2209 48 l2127 -2
27 -21z"/>
<path d="M2735 1546 c-67 -29 -105 -106 -91 -181 9 -47 59 -102 104 -115 25
-8 197 -10 514 -8 463 3 477 4 504 24 53 39 69 71 69 134 0 63 -16 95 -69 134
-27 20 -40 21 -514 23 -390 2 -493 0 -517 -11z"/>
<path d="M4255 1546 c-101 -44 -125 -178 -46 -257 65 -65 157 -65 222 0 124
124 -15 327 -176 257z"/>
</g>
</svg>
