<?xml version="1.0" standalone="no"?>
<!DOCTYPE svg PUBLIC "-//W3C//DTD SVG 20010904//EN"
 "http://www.w3.org/TR/2001/REC-SVG-20010904/DTD/svg10.dtd">
<svg version="1.0" xmlns="http://www.w3.org/2000/svg"
 width="512.000000pt" height="512.000000pt" viewBox="0 0 512.000000 512.000000"
 preserveAspectRatio="xMidYMid meet">

<g transform="translate(0.000000,512.000000) scale(0.100000,-0.100000)"
fill="#000000" stroke="none">
<path d="M3549 5106 c-69 -25 -130 -89 -149 -156 -5 -19 -10 -69 -10 -111 0
-93 21 -129 75 -129 54 0 75 36 75 127 0 69 2 77 29 104 l29 29 657 0 657 0
29 -29 29 -29 0 -1016 0 -1016 -715 0 -715 0 0 803 c-1 642 -3 805 -14 819
-19 25 -57 37 -85 26 -50 -18 -50 -23 -51 -345 l0 -303 -1276 -2 -1276 -3 -24
-28 c-22 -25 -24 -37 -24 -125 l-1 -97 -43 -26 c-135 -82 -137 -285 -4 -375
39 -26 51 -29 125 -29 75 0 84 2 125 31 63 46 101 122 96 195 -5 73 -45 142
-104 178 -41 25 -43 28 -44 74 l0 47 1225 0 1224 0 3 -662 c3 -734 -1 -688 69
-757 70 -70 18 -66 794 -66 776 0 724 -4 794 66 72 71 66 -48 66 1374 0 1422
6 1303 -66 1374 -70 70 -21 66 -779 68 -546 2 -692 0 -721 -11z m-2629 -1648
c43 -46 10 -118 -55 -118 -36 0 -75 36 -75 70 0 10 9 29 21 44 27 34 79 36
109 4z m4050 -874 l0 -146 -29 -29 -29 -29 -657 0 -657 0 -29 29 -29 29 0 146
0 146 715 0 715 0 0 -146z"/>
<path d="M4035 4835 c-14 -13 -25 -36 -25 -50 0 -14 11 -37 25 -50 24 -25 25
-25 220 -25 195 0 196 0 220 25 14 13 25 36 25 50 0 14 -11 37 -25 50 -24 25
-25 25 -220 25 -195 0 -196 0 -220 -25z"/>
<path d="M4199 4199 c-127 -14 -262 -111 -321 -230 -105 -211 -14 -471 201
-573 62 -29 73 -31 176 -31 103 0 114 2 178 32 44 21 88 52 122 87 281 288 47
759 -356 715z m200 -186 c52 -32 105 -105 122 -166 36 -132 -55 -293 -185
-328 -55 -15 -152 -7 -201 16 -85 41 -155 151 -155 245 0 91 69 203 151 246
76 39 192 33 268 -13z"/>
<path d="M159 2876 c-77 -27 -143 -105 -154 -179 -3 -23 -5 -602 -3 -1287 3
-1382 -3 -1268 69 -1339 70 -70 18 -66 794 -66 776 0 724 -4 794 66 69 69 66
38 69 631 l3 538 1239 2 1239 3 23 23 c20 19 23 34 26 127 4 102 5 106 31 119
125 66 150 260 45 358 -83 78 -225 78 -308 0 -84 -79 -88 -231 -8 -315 15 -16
39 -35 55 -43 24 -13 27 -20 27 -64 l0 -50 -1185 0 -1185 0 0 269 c0 256 -1
269 -21 295 -28 36 -80 36 -108 0 -21 -26 -21 -34 -21 -670 l0 -644 -164 0
c-145 0 -166 -2 -187 -19 -32 -26 -32 -86 0 -112 21 -17 42 -19 187 -19 l164
0 0 -146 0 -146 -29 -29 -29 -29 -657 0 -657 0 -29 29 -29 29 0 146 0 146 414
0 c403 0 414 1 440 21 36 28 36 80 0 108 -26 20 -37 21 -440 21 l-414 0 0
1016 0 1016 29 29 29 29 657 0 657 0 29 -29 29 -29 0 -230 c0 -217 1 -231 21
-256 29 -36 80 -36 109 1 21 26 21 35 18 278 -3 274 -4 280 -69 344 -70 70
-21 66 -779 68 -546 2 -692 0 -721 -11z m4073 -1113 c23 -20 24 -80 1 -105
-20 -23 -80 -24 -105 -1 -23 20 -24 80 -1 105 20 23 80 24 105 1z"/>
<path d="M645 2605 c-14 -13 -25 -36 -25 -50 0 -14 11 -37 25 -50 24 -25 25
-25 220 -25 195 0 196 0 220 25 14 13 25 36 25 50 0 14 -11 37 -25 50 -24 25
-25 25 -220 25 -195 0 -196 0 -220 -25z"/>
<path d="M724 1990 c-217 -77 -333 -302 -270 -521 89 -306 486 -403 707 -172
83 87 119 175 119 293 0 187 -113 341 -296 404 -64 22 -193 20 -260 -4z m246
-151 c101 -45 160 -138 160 -249 -1 -156 -115 -270 -270 -270 -290 0 -377 392
-115 516 65 31 160 32 225 3z"/>
</g>
</svg>
