<?xml version="1.0" standalone="no"?>
<!DOCTYPE svg PUBLIC "-//W3C//DTD SVG 20010904//EN"
 "http://www.w3.org/TR/2001/REC-SVG-20010904/DTD/svg10.dtd">
<svg version="1.0" xmlns="http://www.w3.org/2000/svg"
 width="512.000000pt" height="512.000000pt" viewBox="0 0 512.000000 512.000000"
 preserveAspectRatio="xMidYMid meet">

<g transform="translate(0.000000,512.000000) scale(0.100000,-0.100000)"
fill="#000000" stroke="none">
<path d="M105 4695 c-14 -13 -25 -36 -25 -50 0 -26 935 -1663 969 -1696 9 -9
229 -99 488 -200 260 -101 473 -186 473 -189 0 -3 -213 -88 -473 -189 -259
-101 -479 -191 -488 -200 -34 -33 -969 -1670 -969 -1696 0 -33 41 -75 73 -75
36 0 4849 2087 4870 2112 9 11 17 33 17 48 0 15 -8 37 -17 48 -21 25 -4834
2112 -4870 2112 -13 0 -35 -11 -48 -25z"/>
</g>
</svg>
