<?xml version="1.0" standalone="no"?>
<!DOCTYPE svg PUBLIC "-//W3C//DTD SVG 20010904//EN"
 "http://www.w3.org/TR/2001/REC-SVG-20010904/DTD/svg10.dtd">
<svg version="1.0" xmlns="http://www.w3.org/2000/svg"
 width="512.000000pt" height="512.000000pt" viewBox="0 0 512.000000 512.000000"
 preserveAspectRatio="xMidYMid meet">

<g transform="translate(0.000000,512.000000) scale(0.100000,-0.100000)"
fill="#000000" stroke="none">
<path d="M3932 5106 c-124 -24 -213 -55 -244 -86 -38 -39 -38 -88 0 -131 34
-38 77 -41 163 -11 319 111 713 -19 914 -303 152 -215 194 -489 112 -730 -27
-78 -58 -145 -66 -145 -3 0 -19 24 -34 53 -52 101 -154 186 -263 222 l-51 16
25 62 c30 74 40 210 23 302 -35 184 -167 316 -348 346 -174 29 -356 -64 -435
-222 -56 -113 -63 -308 -16 -426 l25 -62 -26 -6 c-106 -26 -234 -129 -287
-230 -16 -30 -32 -55 -35 -55 -11 0 -67 134 -84 200 -35 136 -29 317 16 447
27 79 25 116 -9 154 -21 24 -36 31 -64 31 -74 0 -95 -29 -135 -181 -47 -186
-40 -392 21 -573 l23 -69 -81 -43 c-45 -25 -249 -134 -455 -244 l-375 -200
-35 46 c-68 92 -147 175 -216 232 -360 293 -831 358 -1267 175 -110 -46 -143
-80 -135 -139 7 -51 44 -86 91 -86 18 0 68 16 111 36 43 20 121 47 174 61 82
22 118 26 246 26 130 0 163 -3 246 -25 193 -52 347 -138 476 -267 132 -132
222 -288 271 -471 22 -83 25 -115 25 -250 0 -134 -3 -168 -25 -250 -14 -52
-41 -128 -59 -169 l-33 -73 -34 68 c-70 139 -217 255 -381 300 l-60 17 24 41
c52 89 68 161 68 306 1 150 -13 216 -64 306 -65 115 -177 207 -298 244 -79 25
-215 27 -292 4 -163 -48 -301 -184 -351 -348 -18 -58 -22 -95 -22 -201 0 -142
19 -230 68 -310 l24 -39 -93 -31 c-51 -17 -115 -46 -143 -64 -72 -46 -167
-151 -205 -227 l-33 -66 -27 64 c-126 299 -126 581 2 862 17 38 31 84 31 102
0 76 -94 120 -154 73 -58 -46 -134 -252 -162 -440 -67 -456 140 -922 526
-1180 208 -139 423 -204 680 -204 404 0 741 172 991 506 l35 47 452 -242 c392
-209 452 -244 448 -261 -2 -11 -17 -65 -32 -120 -24 -89 -27 -116 -27 -255 0
-136 3 -167 26 -255 97 -363 370 -635 736 -733 84 -22 116 -25 251 -25 135 0
167 3 251 25 574 154 894 734 719 1300 -26 86 -53 118 -105 125 -76 10 -123
-54 -100 -137 7 -25 20 -72 29 -105 35 -127 30 -312 -11 -435 -21 -63 -64
-160 -72 -160 -3 0 -19 24 -34 53 -52 101 -154 186 -263 222 l-51 16 25 62
c30 74 40 210 23 302 -34 182 -164 313 -343 346 -172 32 -361 -64 -440 -222
-56 -112 -63 -308 -16 -425 l25 -62 -41 -12 c-106 -31 -220 -125 -272 -225
-16 -30 -32 -55 -35 -55 -12 0 -68 136 -86 205 -25 103 -23 305 5 409 61 223
237 432 445 526 193 87 412 101 596 38 77 -26 123 -24 154 7 30 31 37 62 23
106 -14 43 -51 63 -172 96 -87 23 -117 26 -254 26 -134 0 -168 -3 -251 -26
-116 -30 -224 -79 -320 -144 -80 -53 -205 -172 -245 -233 -15 -22 -29 -40 -33
-40 -5 0 -901 477 -907 483 -2 2 10 41 26 87 92 270 88 581 -11 832 -11 28
-18 52 -17 53 6 5 885 474 900 480 10 4 24 -8 42 -35 14 -22 60 -74 101 -114
130 -129 280 -214 460 -263 88 -23 119 -26 255 -26 136 0 167 3 255 26 317 85
573 310 691 608 177 448 18 959 -382 1225 -168 112 -328 162 -534 169 -82 3
-150 0 -198 -9z m233 -607 c56 -16 129 -91 145 -149 7 -26 10 -80 8 -127 -4
-69 -9 -89 -34 -129 -63 -103 -196 -133 -300 -68 -71 43 -104 112 -104 213 0
87 10 130 41 176 54 78 148 110 244 84z m-175 -693 c70 -20 151 -20 220 0 76
23 102 21 205 -10 80 -25 96 -34 140 -79 53 -54 71 -97 82 -186 l6 -49 -49
-36 c-76 -55 -192 -113 -280 -138 -113 -32 -315 -32 -427 0 -94 27 -203 80
-276 134 l-53 40 7 61 c15 134 82 211 222 252 48 15 93 28 98 30 12 5 33 1
105 -19z m-2632 -666 c70 -36 115 -83 148 -155 44 -97 40 -285 -7 -377 -70
-138 -244 -203 -392 -148 -76 29 -130 79 -169 158 -32 64 -33 71 -33 187 1
108 3 126 26 175 36 78 80 124 151 160 52 26 72 30 138 30 66 0 86 -4 138 -30z
m-318 -872 c46 -18 75 -22 175 -23 102 0 130 4 185 24 l66 23 99 -26 c157 -42
202 -63 265 -125 66 -66 95 -124 112 -222 l12 -71 -49 -44 c-125 -110 -272
-188 -434 -232 -84 -22 -116 -25 -251 -25 -135 0 -167 3 -251 25 -162 44 -298
116 -426 227 -58 49 -62 64 -43 149 26 109 104 213 196 258 49 24 238 82 274
83 8 1 40 -9 70 -21z m3125 -849 c56 -16 129 -91 145 -149 7 -26 10 -80 8
-127 -4 -69 -9 -89 -34 -129 -63 -103 -196 -133 -300 -68 -71 43 -104 112
-104 213 0 87 10 130 41 176 54 78 148 110 244 84z m-175 -693 c70 -20 151
-20 220 0 76 23 102 21 205 -10 80 -25 96 -34 140 -79 52 -54 71 -97 82 -186
l5 -48 -65 -47 c-79 -57 -188 -107 -282 -132 -94 -24 -292 -25 -390 -1 -84 21
-232 91 -299 142 l-48 38 7 60 c15 134 82 211 222 252 48 15 93 28 98 30 12 5
33 1 105 -19z"/>
<path d="M3401 4836 c-13 -7 -30 -24 -37 -37 -56 -102 77 -198 157 -113 73 78
-26 202 -120 150z"/>
<path d="M359 3421 c-49 -49 -35 -126 29 -157 66 -31 136 16 136 92 0 28 -7
43 -32 65 -44 40 -93 39 -133 0z"/>
<path d="M4688 1741 c-68 -61 -28 -166 63 -166 34 0 46 6 70 33 44 49 34 119
-22 148 -42 21 -75 17 -111 -15z"/>
</g>
</svg>
